<mxfile host="app.diagrams.net" agent="Mozilla/5.0 (Windows NT 10.0; Win64; x64) AppleWebKit/537.36 (KHTML, like Gecko) Chrome/137.0.0.0 Safari/537.36" version="27.2.0" pages="3">
  <diagram name="항공편 유스케이스" id="F-iOnR9wTrfNHltmywjr">
    <mxGraphModel dx="886" dy="836" grid="1" gridSize="10" guides="1" tooltips="1" connect="1" arrows="1" fold="1" page="1" pageScale="1" pageWidth="827" pageHeight="1169" math="0" shadow="0">
      <root>
        <mxCell id="0" />
        <mxCell id="1" parent="0" />
        <mxCell id="TSQjfYuv1aGrW-zNHjgg-1" value="항공편 예매 프로그램" style="shape=umlFrame;whiteSpace=wrap;html=1;pointerEvents=0;width=140;height=50;" parent="1" vertex="1">
          <mxGeometry x="170" y="60" width="760" height="880" as="geometry" />
        </mxCell>
        <mxCell id="TSQjfYuv1aGrW-zNHjgg-2" value="회원 고객" style="shape=umlActor;verticalLabelPosition=bottom;verticalAlign=top;html=1;" parent="1" vertex="1">
          <mxGeometry x="100" y="510" width="30" height="60" as="geometry" />
        </mxCell>
        <mxCell id="TSQjfYuv1aGrW-zNHjgg-3" value="비회원 고객" style="shape=umlActor;verticalLabelPosition=bottom;verticalAlign=top;html=1;" parent="1" vertex="1">
          <mxGeometry x="100" y="150" width="30" height="60" as="geometry" />
        </mxCell>
        <mxCell id="TSQjfYuv1aGrW-zNHjgg-4" value="항공사 직원" style="shape=umlActor;verticalLabelPosition=bottom;verticalAlign=top;html=1;" parent="1" vertex="1">
          <mxGeometry x="356.5" y="980" width="30" height="60" as="geometry" />
        </mxCell>
        <mxCell id="6cgNrplr_nxFpIooKOQm-1" value="&lt;font style=&quot;font-size: 15px;&quot;&gt;항공편 조회&lt;/font&gt;" style="ellipse;whiteSpace=wrap;html=1;" parent="1" vertex="1">
          <mxGeometry x="317" y="410" width="110" height="60" as="geometry" />
        </mxCell>
        <mxCell id="hqrXyIfxQqy9Dc4IhXDP-2" value="Use" style="html=1;verticalAlign=bottom;endArrow=block;curved=0;rounded=0;entryX=0;entryY=0.667;entryDx=0;entryDy=0;entryPerimeter=0;" parent="1" source="TSQjfYuv1aGrW-zNHjgg-2" target="6cgNrplr_nxFpIooKOQm-1" edge="1">
          <mxGeometry x="0.0091" y="-7" width="80" relative="1" as="geometry">
            <mxPoint x="250" y="250" as="sourcePoint" />
            <mxPoint x="330" y="250" as="targetPoint" />
            <mxPoint as="offset" />
          </mxGeometry>
        </mxCell>
        <mxCell id="hqrXyIfxQqy9Dc4IhXDP-3" value="Use" style="html=1;verticalAlign=bottom;endArrow=block;curved=0;rounded=0;entryX=-0.001;entryY=0.387;entryDx=0;entryDy=0;entryPerimeter=0;exitX=0.5;exitY=0.5;exitDx=0;exitDy=0;exitPerimeter=0;" parent="1" source="TSQjfYuv1aGrW-zNHjgg-3" target="6cgNrplr_nxFpIooKOQm-1" edge="1">
          <mxGeometry x="-0.0574" y="1" width="80" relative="1" as="geometry">
            <mxPoint x="230" y="790" as="sourcePoint" />
            <mxPoint x="310" y="790" as="targetPoint" />
            <mxPoint as="offset" />
          </mxGeometry>
        </mxCell>
        <mxCell id="kEUF5NLoNqo9Wf50HFYm-1" value="&lt;font style=&quot;font-size: 15px;&quot;&gt;항공편 관리&lt;/font&gt;" style="ellipse;whiteSpace=wrap;html=1;" parent="1" vertex="1">
          <mxGeometry x="620" y="715" width="110" height="60" as="geometry" />
        </mxCell>
        <mxCell id="rdrKtdxc_WOqeBZt2CSr-1" value="&lt;font style=&quot;font-size: 15px;&quot;&gt;로그인&lt;/font&gt;" style="ellipse;whiteSpace=wrap;html=1;" parent="1" vertex="1">
          <mxGeometry x="457" y="610" width="110" height="60" as="geometry" />
        </mxCell>
        <mxCell id="i2SYmDAjl8VnEC_r3fuZ-29" value="" style="edgeStyle=orthogonalEdgeStyle;rounded=0;orthogonalLoop=1;jettySize=auto;html=1;fontSize=12;startSize=8;endSize=8;" edge="1" parent="1" source="f_vkENXSJxDrFPUfgNhy-5" target="kEUF5NLoNqo9Wf50HFYm-1">
          <mxGeometry relative="1" as="geometry" />
        </mxCell>
        <mxCell id="f_vkENXSJxDrFPUfgNhy-5" value="&lt;span style=&quot;font-size: 15px;&quot;&gt;수정&lt;/span&gt;" style="ellipse;whiteSpace=wrap;html=1;" parent="1" vertex="1">
          <mxGeometry x="800" y="725" width="43" height="40" as="geometry" />
        </mxCell>
        <mxCell id="f_vkENXSJxDrFPUfgNhy-6" value="&lt;font style=&quot;font-size: 15px;&quot;&gt;예매&lt;/font&gt;" style="ellipse;whiteSpace=wrap;html=1;" parent="1" vertex="1">
          <mxGeometry x="427" y="240" width="110" height="60" as="geometry" />
        </mxCell>
        <mxCell id="f_vkENXSJxDrFPUfgNhy-17" value="예메 시스템&lt;br&gt;&lt;div&gt;관리자&lt;/div&gt;" style="shape=umlActor;verticalLabelPosition=bottom;verticalAlign=top;html=1;" parent="1" vertex="1">
          <mxGeometry x="620" y="980" width="30" height="60" as="geometry" />
        </mxCell>
        <mxCell id="i2SYmDAjl8VnEC_r3fuZ-30" value="" style="edgeStyle=orthogonalEdgeStyle;rounded=0;orthogonalLoop=1;jettySize=auto;html=1;fontSize=12;startSize=8;endSize=8;" edge="1" parent="1" source="f_vkENXSJxDrFPUfgNhy-27" target="kEUF5NLoNqo9Wf50HFYm-1">
          <mxGeometry relative="1" as="geometry" />
        </mxCell>
        <mxCell id="f_vkENXSJxDrFPUfgNhy-27" value="&lt;span style=&quot;font-size: 15px;&quot;&gt;조회&lt;/span&gt;" style="ellipse;whiteSpace=wrap;html=1;" parent="1" vertex="1">
          <mxGeometry x="800" y="685" width="43" height="40" as="geometry" />
        </mxCell>
        <mxCell id="i2SYmDAjl8VnEC_r3fuZ-28" value="" style="edgeStyle=orthogonalEdgeStyle;rounded=0;orthogonalLoop=1;jettySize=auto;html=1;fontSize=12;startSize=8;endSize=8;endArrow=block;endFill=0;" edge="1" parent="1" source="f_vkENXSJxDrFPUfgNhy-28" target="ruYIe8Tzf7pR5JNdtWy6-17">
          <mxGeometry relative="1" as="geometry" />
        </mxCell>
        <mxCell id="f_vkENXSJxDrFPUfgNhy-28" value="&lt;font style=&quot;font-size: 15px;&quot;&gt;수정&lt;/font&gt;" style="ellipse;whiteSpace=wrap;html=1;" parent="1" vertex="1">
          <mxGeometry x="220.5" y="760" width="50" height="50" as="geometry" />
        </mxCell>
        <mxCell id="i2SYmDAjl8VnEC_r3fuZ-27" value="" style="edgeStyle=orthogonalEdgeStyle;rounded=0;orthogonalLoop=1;jettySize=auto;html=1;fontSize=12;startSize=8;endSize=8;endArrow=block;endFill=0;" edge="1" parent="1" source="f_vkENXSJxDrFPUfgNhy-29" target="ruYIe8Tzf7pR5JNdtWy6-17">
          <mxGeometry relative="1" as="geometry" />
        </mxCell>
        <mxCell id="f_vkENXSJxDrFPUfgNhy-29" value="&lt;font style=&quot;font-size: 15px;&quot;&gt;조회&lt;/font&gt;" style="ellipse;whiteSpace=wrap;html=1;" parent="1" vertex="1">
          <mxGeometry x="220.5" y="710" width="50" height="50" as="geometry" />
        </mxCell>
        <mxCell id="BkTQVnEG5esFC4FTC9d9-1" value="&amp;lt;&amp;lt;include&amp;gt;&amp;gt;" style="endArrow=open;endSize=12;dashed=1;html=1;rounded=0;entryX=0.5;entryY=0;entryDx=0;entryDy=0;exitX=0;exitY=1;exitDx=0;exitDy=0;" parent="1" source="f_vkENXSJxDrFPUfgNhy-6" target="6cgNrplr_nxFpIooKOQm-1" edge="1">
          <mxGeometry width="160" relative="1" as="geometry">
            <mxPoint x="612.97" y="482.7600000000002" as="sourcePoint" />
            <mxPoint x="520" y="370" as="targetPoint" />
          </mxGeometry>
        </mxCell>
        <mxCell id="i2SYmDAjl8VnEC_r3fuZ-31" value="" style="edgeStyle=orthogonalEdgeStyle;rounded=0;orthogonalLoop=1;jettySize=auto;html=1;fontSize=12;startSize=8;endSize=8;" edge="1" parent="1" source="CX9npY8HCWIVIqSdf7cb-3" target="kEUF5NLoNqo9Wf50HFYm-1">
          <mxGeometry relative="1" as="geometry" />
        </mxCell>
        <mxCell id="CX9npY8HCWIVIqSdf7cb-3" value="&lt;font style=&quot;font-size: 15px;&quot;&gt;삭제&lt;/font&gt;" style="ellipse;whiteSpace=wrap;html=1;" parent="1" vertex="1">
          <mxGeometry x="800" y="765" width="43" height="40" as="geometry" />
        </mxCell>
        <mxCell id="ieyxKyj2bHBuOMta55cH-2" value="&lt;font style=&quot;font-size: 15px;&quot;&gt;결제&lt;/font&gt;" style="ellipse;whiteSpace=wrap;html=1;" parent="1" vertex="1">
          <mxGeometry x="700" y="240" width="110" height="60" as="geometry" />
        </mxCell>
        <mxCell id="ruYIe8Tzf7pR5JNdtWy6-1" value="Use" style="html=1;verticalAlign=bottom;endArrow=block;curved=0;rounded=0;entryX=-0.009;entryY=0.36;entryDx=0;entryDy=0;exitX=0.5;exitY=0.5;exitDx=0;exitDy=0;exitPerimeter=0;entryPerimeter=0;" parent="1" source="TSQjfYuv1aGrW-zNHjgg-3" target="f_vkENXSJxDrFPUfgNhy-6" edge="1">
          <mxGeometry width="80" relative="1" as="geometry">
            <mxPoint x="150" y="600" as="sourcePoint" />
            <mxPoint x="500" y="603" as="targetPoint" />
          </mxGeometry>
        </mxCell>
        <mxCell id="ruYIe8Tzf7pR5JNdtWy6-2" value="Use" style="html=1;verticalAlign=bottom;endArrow=block;curved=0;rounded=0;entryX=-0.009;entryY=0.713;entryDx=0;entryDy=0;entryPerimeter=0;" parent="1" source="TSQjfYuv1aGrW-zNHjgg-2" target="f_vkENXSJxDrFPUfgNhy-6" edge="1">
          <mxGeometry x="-0.1402" y="-7" width="80" relative="1" as="geometry">
            <mxPoint x="340" y="700" as="sourcePoint" />
            <mxPoint x="690" y="703" as="targetPoint" />
            <mxPoint as="offset" />
          </mxGeometry>
        </mxCell>
        <mxCell id="ruYIe8Tzf7pR5JNdtWy6-6" value="&amp;lt;&amp;lt;include&amp;gt;&amp;gt;" style="endArrow=open;endSize=12;dashed=1;html=1;rounded=0;exitX=1;exitY=0.5;exitDx=0;exitDy=0;entryX=0;entryY=0.5;entryDx=0;entryDy=0;" parent="1" source="f_vkENXSJxDrFPUfgNhy-6" target="ieyxKyj2bHBuOMta55cH-2" edge="1">
          <mxGeometry x="0.1411" width="160" relative="1" as="geometry">
            <mxPoint x="490" y="360" as="sourcePoint" />
            <mxPoint x="650" y="360" as="targetPoint" />
            <mxPoint as="offset" />
          </mxGeometry>
        </mxCell>
        <mxCell id="ruYIe8Tzf7pR5JNdtWy6-8" value="&amp;lt;&amp;lt;include&amp;gt;&amp;gt;" style="endArrow=open;endSize=12;dashed=1;html=1;rounded=0;entryX=1;entryY=1;entryDx=0;entryDy=0;exitX=0.303;exitY=0.056;exitDx=0;exitDy=0;exitPerimeter=0;" parent="1" source="kEUF5NLoNqo9Wf50HFYm-1" target="rdrKtdxc_WOqeBZt2CSr-1" edge="1">
          <mxGeometry width="160" relative="1" as="geometry">
            <mxPoint x="1100" y="355" as="sourcePoint" />
            <mxPoint x="787" y="80" as="targetPoint" />
          </mxGeometry>
        </mxCell>
        <mxCell id="ruYIe8Tzf7pR5JNdtWy6-17" value="&lt;font style=&quot;font-size: 15px;&quot;&gt;회원 정보 관리&lt;/font&gt;" style="ellipse;whiteSpace=wrap;html=1;" parent="1" vertex="1">
          <mxGeometry x="317" y="705" width="110" height="60" as="geometry" />
        </mxCell>
        <mxCell id="ruYIe8Tzf7pR5JNdtWy6-21" value="Use" style="html=1;verticalAlign=bottom;endArrow=block;curved=0;rounded=0;entryX=1;entryY=1;entryDx=0;entryDy=0;" parent="1" source="f_vkENXSJxDrFPUfgNhy-17" target="ruYIe8Tzf7pR5JNdtWy6-17" edge="1">
          <mxGeometry width="80" relative="1" as="geometry">
            <mxPoint x="510" y="10" as="sourcePoint" />
            <mxPoint x="593" y="361" as="targetPoint" />
          </mxGeometry>
        </mxCell>
        <mxCell id="ruYIe8Tzf7pR5JNdtWy6-23" value="Use" style="html=1;verticalAlign=bottom;endArrow=block;curved=0;rounded=0;entryX=0.431;entryY=1.056;entryDx=0;entryDy=0;exitX=0.5;exitY=0;exitDx=0;exitDy=0;exitPerimeter=0;entryPerimeter=0;" parent="1" source="f_vkENXSJxDrFPUfgNhy-17" target="kEUF5NLoNqo9Wf50HFYm-1" edge="1">
          <mxGeometry x="-0.1979" y="2" width="80" relative="1" as="geometry">
            <mxPoint x="550" y="1110" as="sourcePoint" />
            <mxPoint x="734" y="260" as="targetPoint" />
            <mxPoint as="offset" />
          </mxGeometry>
        </mxCell>
        <mxCell id="62AC3sOkVzKb7w2haCht-1" value="Use" style="html=1;verticalAlign=bottom;endArrow=block;curved=0;rounded=0;exitX=0.5;exitY=0;exitDx=0;exitDy=0;exitPerimeter=0;entryX=0.228;entryY=0.938;entryDx=0;entryDy=0;entryPerimeter=0;" parent="1" source="TSQjfYuv1aGrW-zNHjgg-4" target="kEUF5NLoNqo9Wf50HFYm-1" edge="1">
          <mxGeometry width="80" relative="1" as="geometry">
            <mxPoint x="370" y="1010" as="sourcePoint" />
            <mxPoint x="480" y="790" as="targetPoint" />
          </mxGeometry>
        </mxCell>
        <mxCell id="62AC3sOkVzKb7w2haCht-2" value="Use" style="html=1;verticalAlign=bottom;endArrow=block;curved=0;rounded=0;entryX=0.5;entryY=1;entryDx=0;entryDy=0;exitX=0.5;exitY=0;exitDx=0;exitDy=0;exitPerimeter=0;" parent="1" source="TSQjfYuv1aGrW-zNHjgg-4" target="ruYIe8Tzf7pR5JNdtWy6-17" edge="1">
          <mxGeometry x="-0.176" y="-5" width="80" relative="1" as="geometry">
            <mxPoint x="460" y="1000" as="sourcePoint" />
            <mxPoint x="468" y="830" as="targetPoint" />
            <mxPoint as="offset" />
          </mxGeometry>
        </mxCell>
        <mxCell id="A4skDKQk0iJGlFbUaFNy-2" value="&amp;lt;&amp;lt;include&amp;gt;&amp;gt;" style="endArrow=open;endSize=12;dashed=1;html=1;rounded=0;entryX=0;entryY=1;entryDx=0;entryDy=0;exitX=0.687;exitY=0.056;exitDx=0;exitDy=0;exitPerimeter=0;" parent="1" source="ruYIe8Tzf7pR5JNdtWy6-17" target="rdrKtdxc_WOqeBZt2CSr-1" edge="1">
          <mxGeometry width="160" relative="1" as="geometry">
            <mxPoint x="237" y="733" as="sourcePoint" />
            <mxPoint x="312" y="560" as="targetPoint" />
          </mxGeometry>
        </mxCell>
        <mxCell id="ndVR7vv91I0P037rJ_qT-1" value="&lt;font style=&quot;font-size: 15px;&quot;&gt;회원 가입&lt;/font&gt;" style="ellipse;whiteSpace=wrap;html=1;" parent="1" vertex="1">
          <mxGeometry x="400" y="100" width="110" height="60" as="geometry" />
        </mxCell>
        <mxCell id="ndVR7vv91I0P037rJ_qT-2" value="Use" style="html=1;verticalAlign=bottom;endArrow=block;curved=0;rounded=0;entryX=0;entryY=0.5;entryDx=0;entryDy=0;exitX=0.5;exitY=0.5;exitDx=0;exitDy=0;exitPerimeter=0;" parent="1" source="TSQjfYuv1aGrW-zNHjgg-3" target="ndVR7vv91I0P037rJ_qT-1" edge="1">
          <mxGeometry width="80" relative="1" as="geometry">
            <mxPoint x="200" y="140" as="sourcePoint" />
            <mxPoint x="484" y="142" as="targetPoint" />
          </mxGeometry>
        </mxCell>
        <mxCell id="ndVR7vv91I0P037rJ_qT-3" value="Use" style="html=1;verticalAlign=bottom;endArrow=block;curved=0;rounded=0;entryX=0.361;entryY=0.953;entryDx=0;entryDy=0;exitX=0.5;exitY=0;exitDx=0;exitDy=0;exitPerimeter=0;entryPerimeter=0;" parent="1" source="TSQjfYuv1aGrW-zNHjgg-4" target="rdrKtdxc_WOqeBZt2CSr-1" edge="1">
          <mxGeometry x="0.1608" width="80" relative="1" as="geometry">
            <mxPoint x="280" y="682" as="sourcePoint" />
            <mxPoint x="480" y="580" as="targetPoint" />
            <mxPoint as="offset" />
          </mxGeometry>
        </mxCell>
        <mxCell id="ndVR7vv91I0P037rJ_qT-4" value="Use" style="html=1;verticalAlign=bottom;endArrow=block;curved=0;rounded=0;entryX=0.618;entryY=1.071;entryDx=0;entryDy=0;exitX=0.5;exitY=0;exitDx=0;exitDy=0;exitPerimeter=0;entryPerimeter=0;" parent="1" source="f_vkENXSJxDrFPUfgNhy-17" target="rdrKtdxc_WOqeBZt2CSr-1" edge="1">
          <mxGeometry x="0.163" y="1" width="80" relative="1" as="geometry">
            <mxPoint x="630" y="592" as="sourcePoint" />
            <mxPoint x="830" y="490" as="targetPoint" />
            <mxPoint y="-1" as="offset" />
          </mxGeometry>
        </mxCell>
        <mxCell id="ndVR7vv91I0P037rJ_qT-5" value="Use" style="html=1;verticalAlign=bottom;endArrow=block;curved=0;rounded=0;entryX=0.313;entryY=0.095;entryDx=0;entryDy=0;entryPerimeter=0;" parent="1" source="TSQjfYuv1aGrW-zNHjgg-2" target="ruYIe8Tzf7pR5JNdtWy6-17" edge="1">
          <mxGeometry width="80" relative="1" as="geometry">
            <mxPoint x="540" y="532" as="sourcePoint" />
            <mxPoint x="740" y="430" as="targetPoint" />
          </mxGeometry>
        </mxCell>
        <mxCell id="IMG8VG7qjcL3RkKcbaI--5" value="" style="edgeStyle=orthogonalEdgeStyle;rounded=0;orthogonalLoop=1;jettySize=auto;html=1;endArrow=block;endFill=0;" parent="1" source="IMG8VG7qjcL3RkKcbaI--1" target="6cgNrplr_nxFpIooKOQm-1" edge="1">
          <mxGeometry relative="1" as="geometry" />
        </mxCell>
        <mxCell id="IMG8VG7qjcL3RkKcbaI--1" value="&lt;span style=&quot;font-size: 15px;&quot;&gt;날짜&lt;/span&gt;" style="ellipse;whiteSpace=wrap;html=1;" parent="1" vertex="1">
          <mxGeometry x="297" y="510" width="50" height="50" as="geometry" />
        </mxCell>
        <mxCell id="IMG8VG7qjcL3RkKcbaI--4" value="" style="edgeStyle=orthogonalEdgeStyle;rounded=0;orthogonalLoop=1;jettySize=auto;html=1;endArrow=block;endFill=0;" parent="1" source="IMG8VG7qjcL3RkKcbaI--2" target="6cgNrplr_nxFpIooKOQm-1" edge="1">
          <mxGeometry relative="1" as="geometry" />
        </mxCell>
        <mxCell id="IMG8VG7qjcL3RkKcbaI--2" value="&lt;span style=&quot;font-size: 15px;&quot;&gt;금액&lt;/span&gt;" style="ellipse;whiteSpace=wrap;html=1;" parent="1" vertex="1">
          <mxGeometry x="347" y="510" width="50" height="50" as="geometry" />
        </mxCell>
        <mxCell id="IMG8VG7qjcL3RkKcbaI--6" value="" style="edgeStyle=orthogonalEdgeStyle;rounded=0;orthogonalLoop=1;jettySize=auto;html=1;endArrow=block;endFill=0;" parent="1" source="IMG8VG7qjcL3RkKcbaI--3" target="6cgNrplr_nxFpIooKOQm-1" edge="1">
          <mxGeometry relative="1" as="geometry" />
        </mxCell>
        <mxCell id="IMG8VG7qjcL3RkKcbaI--3" value="&lt;span style=&quot;font-size: 15px;&quot;&gt;좌석&lt;/span&gt;" style="ellipse;whiteSpace=wrap;html=1;" parent="1" vertex="1">
          <mxGeometry x="397" y="510" width="50" height="50" as="geometry" />
        </mxCell>
        <mxCell id="i2SYmDAjl8VnEC_r3fuZ-32" value="" style="edgeStyle=orthogonalEdgeStyle;rounded=0;orthogonalLoop=1;jettySize=auto;html=1;fontSize=12;startSize=8;endSize=8;" edge="1" parent="1" source="IMG8VG7qjcL3RkKcbaI--8" target="kEUF5NLoNqo9Wf50HFYm-1">
          <mxGeometry relative="1" as="geometry" />
        </mxCell>
        <mxCell id="IMG8VG7qjcL3RkKcbaI--8" value="&lt;span style=&quot;font-size: 15px;&quot;&gt;공지&lt;/span&gt;" style="ellipse;whiteSpace=wrap;html=1;" parent="1" vertex="1">
          <mxGeometry x="800" y="805" width="43" height="40" as="geometry" />
        </mxCell>
        <mxCell id="i2SYmDAjl8VnEC_r3fuZ-33" value="" style="edgeStyle=orthogonalEdgeStyle;rounded=0;orthogonalLoop=1;jettySize=auto;html=1;fontSize=12;startSize=8;endSize=8;" edge="1" parent="1" source="IMG8VG7qjcL3RkKcbaI--13" target="kEUF5NLoNqo9Wf50HFYm-1">
          <mxGeometry relative="1" as="geometry" />
        </mxCell>
        <mxCell id="IMG8VG7qjcL3RkKcbaI--13" value="&lt;span style=&quot;font-size: 15px;&quot;&gt;등록&lt;/span&gt;" style="ellipse;whiteSpace=wrap;html=1;" parent="1" vertex="1">
          <mxGeometry x="800" y="645" width="43" height="40" as="geometry" />
        </mxCell>
        <mxCell id="i2SYmDAjl8VnEC_r3fuZ-26" value="" style="edgeStyle=orthogonalEdgeStyle;rounded=0;orthogonalLoop=1;jettySize=auto;html=1;fontSize=12;startSize=8;endSize=8;endArrow=block;endFill=0;" edge="1" parent="1" source="IMG8VG7qjcL3RkKcbaI--16" target="ruYIe8Tzf7pR5JNdtWy6-17">
          <mxGeometry relative="1" as="geometry" />
        </mxCell>
        <mxCell id="IMG8VG7qjcL3RkKcbaI--16" value="&lt;font style=&quot;font-size: 15px;&quot;&gt;삭제&lt;/font&gt;" style="ellipse;whiteSpace=wrap;html=1;" parent="1" vertex="1">
          <mxGeometry x="220.5" y="660" width="50" height="50" as="geometry" />
        </mxCell>
        <mxCell id="_080sAZEA4Wv_sIMAP1x-1" value="&lt;span style=&quot;font-size: 15px;&quot;&gt;예매&lt;/span&gt;&lt;div&gt;&lt;span style=&quot;font-size: 15px;&quot;&gt;취소&lt;/span&gt;&lt;/div&gt;" style="ellipse;whiteSpace=wrap;html=1;" parent="1" vertex="1">
          <mxGeometry x="437" y="350" width="50" height="50" as="geometry" />
        </mxCell>
        <mxCell id="_080sAZEA4Wv_sIMAP1x-2" value="&lt;span style=&quot;font-size: 15px;&quot;&gt;내역&lt;br&gt;조회&lt;/span&gt;" style="ellipse;whiteSpace=wrap;html=1;" parent="1" vertex="1">
          <mxGeometry x="487" y="350" width="50" height="50" as="geometry" />
        </mxCell>
        <mxCell id="3DJbjTsWqMMQ0gSizQ_Y-1" value="&amp;lt;&amp;lt;extend&amp;gt;&amp;gt;" style="endArrow=open;endSize=12;dashed=1;html=1;rounded=0;exitX=0.44;exitY=0.016;exitDx=0;exitDy=0;exitPerimeter=0;entryX=0.635;entryY=1.012;entryDx=0;entryDy=0;entryPerimeter=0;" parent="1" source="_080sAZEA4Wv_sIMAP1x-2" target="f_vkENXSJxDrFPUfgNhy-6" edge="1">
          <mxGeometry x="0.1411" width="160" relative="1" as="geometry">
            <mxPoint x="461.94999999999993" y="252.9000000000001" as="sourcePoint" />
            <mxPoint x="459" y="320" as="targetPoint" />
            <mxPoint as="offset" />
          </mxGeometry>
        </mxCell>
        <mxCell id="3DJbjTsWqMMQ0gSizQ_Y-2" value="&amp;lt;&amp;lt;extend&amp;gt;&amp;gt;" style="endArrow=open;endSize=12;dashed=1;html=1;rounded=0;entryX=0.5;entryY=1;entryDx=0;entryDy=0;" parent="1" target="f_vkENXSJxDrFPUfgNhy-6" edge="1">
          <mxGeometry x="-0.571" y="-1" width="160" relative="1" as="geometry">
            <mxPoint x="467.05228821819264" y="346.5158340195271" as="sourcePoint" />
            <mxPoint x="477.3799999999999" y="296.78" as="targetPoint" />
            <mxPoint as="offset" />
          </mxGeometry>
        </mxCell>
      </root>
    </mxGraphModel>
  </diagram>
  <diagram name="항공예매 요구사항 확인" id="eV113GIqN8mrdFr1oN39">
    <mxGraphModel dx="1266" dy="1194" grid="1" gridSize="10" guides="1" tooltips="1" connect="1" arrows="1" fold="1" page="1" pageScale="1" pageWidth="827" pageHeight="1169" math="0" shadow="0">
      <root>
        <mxCell id="0" />
        <mxCell id="1" parent="0" />
        <mxCell id="hTApx3QeaIhkRUZipJa1-1" value="" style="shape=card;whiteSpace=wrap;html=1;" parent="1" vertex="1">
          <mxGeometry x="70" y="150" width="1005" height="650" as="geometry" />
        </mxCell>
        <mxCell id="hTApx3QeaIhkRUZipJa1-2" value="&lt;div&gt;&lt;br&gt;&lt;/div&gt;" style="rounded=0;whiteSpace=wrap;html=1;" parent="1" vertex="1">
          <mxGeometry x="820" y="250" width="240" height="530" as="geometry" />
        </mxCell>
        <mxCell id="hTApx3QeaIhkRUZipJa1-3" value="" style="rounded=0;whiteSpace=wrap;html=1;" parent="1" vertex="1">
          <mxGeometry x="575" y="250" width="240" height="530" as="geometry" />
        </mxCell>
        <mxCell id="hTApx3QeaIhkRUZipJa1-4" value="" style="rounded=0;whiteSpace=wrap;html=1;" parent="1" vertex="1">
          <mxGeometry x="330" y="250" width="240" height="530" as="geometry" />
        </mxCell>
        <mxCell id="hTApx3QeaIhkRUZipJa1-5" value="&lt;div&gt;&lt;br&gt;&lt;/div&gt;" style="rounded=0;whiteSpace=wrap;html=1;" parent="1" vertex="1">
          <mxGeometry x="85" y="250" width="240" height="530" as="geometry" />
        </mxCell>
        <mxCell id="hTApx3QeaIhkRUZipJa1-6" value="인증 서비스" style="rounded=0;whiteSpace=wrap;html=1;fillColor=#e1d5e7;strokeColor=#9673a6;" parent="1" vertex="1">
          <mxGeometry x="85" y="250" width="240" height="30" as="geometry" />
        </mxCell>
        <mxCell id="hTApx3QeaIhkRUZipJa1-7" value="인증서비스" style="rounded=0;whiteSpace=wrap;html=1;fillColor=#e1d5e7;strokeColor=#9673a6;" parent="1" vertex="1">
          <mxGeometry x="330" y="250" width="240" height="30" as="geometry" />
        </mxCell>
        <mxCell id="hTApx3QeaIhkRUZipJa1-8" value="인증서비스" style="rounded=0;whiteSpace=wrap;html=1;fillColor=#e1d5e7;strokeColor=#9673a6;" parent="1" vertex="1">
          <mxGeometry x="575" y="250" width="240" height="30" as="geometry" />
        </mxCell>
        <mxCell id="hTApx3QeaIhkRUZipJa1-9" value="인증서비스" style="rounded=0;whiteSpace=wrap;html=1;fillColor=#e1d5e7;strokeColor=#9673a6;" parent="1" vertex="1">
          <mxGeometry x="820" y="250" width="240" height="30" as="geometry" />
        </mxCell>
        <mxCell id="hTApx3QeaIhkRUZipJa1-10" value="항공편 조회 서비스" style="rounded=0;whiteSpace=wrap;html=1;fillColor=#e1d5e7;strokeColor=#9673a6;" parent="1" vertex="1">
          <mxGeometry x="85" y="420" width="240" height="30" as="geometry" />
        </mxCell>
        <mxCell id="hTApx3QeaIhkRUZipJa1-11" value="항공편 조회 서비스" style="rounded=0;whiteSpace=wrap;html=1;fillColor=#e1d5e7;strokeColor=#9673a6;" parent="1" vertex="1">
          <mxGeometry x="330" y="420" width="240" height="30" as="geometry" />
        </mxCell>
        <mxCell id="hTApx3QeaIhkRUZipJa1-12" value="항공편 조회 서비스" style="rounded=0;whiteSpace=wrap;html=1;fillColor=#e1d5e7;strokeColor=#9673a6;" parent="1" vertex="1">
          <mxGeometry x="575" y="420" width="240" height="30" as="geometry" />
        </mxCell>
        <mxCell id="hTApx3QeaIhkRUZipJa1-13" value="항공편 조회 서비스" style="rounded=0;whiteSpace=wrap;html=1;fillColor=#e1d5e7;strokeColor=#9673a6;" parent="1" vertex="1">
          <mxGeometry x="820" y="420" width="240" height="30" as="geometry" />
        </mxCell>
        <mxCell id="hTApx3QeaIhkRUZipJa1-14" value="예매 서비스" style="rounded=0;whiteSpace=wrap;html=1;fillColor=#e1d5e7;strokeColor=#9673a6;" parent="1" vertex="1">
          <mxGeometry x="85" y="590" width="240" height="30" as="geometry" />
        </mxCell>
        <mxCell id="hTApx3QeaIhkRUZipJa1-15" value="예매 서비스" style="rounded=0;whiteSpace=wrap;html=1;fillColor=#e1d5e7;strokeColor=#9673a6;" parent="1" vertex="1">
          <mxGeometry x="330" y="590" width="240" height="30" as="geometry" />
        </mxCell>
        <mxCell id="hTApx3QeaIhkRUZipJa1-16" value="예매 서비스" style="rounded=0;whiteSpace=wrap;html=1;fillColor=#e1d5e7;strokeColor=#9673a6;" parent="1" vertex="1">
          <mxGeometry x="575" y="590" width="240" height="30" as="geometry" />
        </mxCell>
        <mxCell id="hTApx3QeaIhkRUZipJa1-17" value="예매 서비스" style="rounded=0;whiteSpace=wrap;html=1;fillColor=#e1d5e7;strokeColor=#9673a6;" parent="1" vertex="1">
          <mxGeometry x="820" y="590" width="240" height="30" as="geometry" />
        </mxCell>
        <mxCell id="hTApx3QeaIhkRUZipJa1-18" value="&lt;font style=&quot;font-size: 24px;&quot;&gt;항공편 예매 프로그램&lt;/font&gt;" style="text;html=1;align=center;verticalAlign=middle;resizable=0;points=[];autosize=1;strokeColor=none;fillColor=none;" parent="1" vertex="1">
          <mxGeometry x="85" y="160" width="240" height="40" as="geometry" />
        </mxCell>
        <mxCell id="hTApx3QeaIhkRUZipJa1-19" value="사서" style="text;html=1;align=center;verticalAlign=middle;resizable=0;points=[];autosize=1;strokeColor=none;fillColor=none;" parent="1" vertex="1">
          <mxGeometry x="335" y="208" width="50" height="30" as="geometry" />
        </mxCell>
        <mxCell id="hTApx3QeaIhkRUZipJa1-20" value="비회원" style="text;html=1;align=center;verticalAlign=middle;resizable=0;points=[];autosize=1;strokeColor=none;fillColor=none;" parent="1" vertex="1">
          <mxGeometry x="605" y="208" width="60" height="30" as="geometry" />
        </mxCell>
        <mxCell id="hTApx3QeaIhkRUZipJa1-21" value="회원" style="text;html=1;align=center;verticalAlign=middle;resizable=0;points=[];autosize=1;strokeColor=none;fillColor=none;" parent="1" vertex="1">
          <mxGeometry x="85" y="208" width="50" height="30" as="geometry" />
        </mxCell>
        <mxCell id="hTApx3QeaIhkRUZipJa1-22" value="관리자" style="text;html=1;align=center;verticalAlign=middle;resizable=0;points=[];autosize=1;strokeColor=none;fillColor=none;" parent="1" vertex="1">
          <mxGeometry x="885" y="208" width="60" height="30" as="geometry" />
        </mxCell>
        <mxCell id="hTApx3QeaIhkRUZipJa1-25" value="&lt;div&gt;&lt;br&gt;&lt;/div&gt;" style="text;html=1;align=left;verticalAlign=middle;resizable=0;points=[];autosize=1;strokeColor=none;fillColor=none;fontSize=10;" parent="1" vertex="1">
          <mxGeometry x="580" y="305" width="20" height="30" as="geometry" />
        </mxCell>
        <mxCell id="hTApx3QeaIhkRUZipJa1-26" value="&lt;div&gt;&lt;br&gt;&lt;/div&gt;" style="text;html=1;align=left;verticalAlign=middle;resizable=0;points=[];autosize=1;strokeColor=none;fillColor=none;fontSize=10;" parent="1" vertex="1">
          <mxGeometry x="335" y="330" width="20" height="30" as="geometry" />
        </mxCell>
        <mxCell id="hTApx3QeaIhkRUZipJa1-27" value="&lt;div&gt;&lt;br&gt;&lt;/div&gt;" style="text;html=1;align=left;verticalAlign=middle;resizable=0;points=[];autosize=1;strokeColor=none;fillColor=none;fontSize=10;" parent="1" vertex="1">
          <mxGeometry x="345" y="485" width="20" height="30" as="geometry" />
        </mxCell>
        <mxCell id="hTApx3QeaIhkRUZipJa1-28" value="&lt;div&gt;&lt;br&gt;&lt;/div&gt;" style="text;html=1;align=left;verticalAlign=middle;resizable=0;points=[];autosize=1;strokeColor=none;fillColor=none;fontSize=10;" parent="1" vertex="1">
          <mxGeometry x="585" y="480" width="20" height="30" as="geometry" />
        </mxCell>
        <mxCell id="hTApx3QeaIhkRUZipJa1-30" value="비회원" style="rounded=0;whiteSpace=wrap;html=1;fillColor=#dae8fc;strokeColor=#6c8ebf;" parent="1" vertex="1">
          <mxGeometry x="85" y="208" width="240" height="30" as="geometry" />
        </mxCell>
        <mxCell id="hTApx3QeaIhkRUZipJa1-31" value="회원" style="rounded=0;whiteSpace=wrap;html=1;fillColor=#dae8fc;strokeColor=#6c8ebf;" parent="1" vertex="1">
          <mxGeometry x="330" y="208" width="240" height="30" as="geometry" />
        </mxCell>
        <mxCell id="hTApx3QeaIhkRUZipJa1-32" value="관리자" style="rounded=0;whiteSpace=wrap;html=1;fillColor=#dae8fc;strokeColor=#6c8ebf;" parent="1" vertex="1">
          <mxGeometry x="820" y="208" width="240" height="30" as="geometry" />
        </mxCell>
        <mxCell id="hTApx3QeaIhkRUZipJa1-33" value="직원" style="rounded=0;whiteSpace=wrap;html=1;fillColor=#dae8fc;strokeColor=#6c8ebf;" parent="1" vertex="1">
          <mxGeometry x="575" y="208" width="240" height="30" as="geometry" />
        </mxCell>
        <mxCell id="hTApx3QeaIhkRUZipJa1-38" value="&lt;div&gt;&lt;br&gt;&lt;/div&gt;" style="text;html=1;align=left;verticalAlign=middle;resizable=0;points=[];autosize=1;strokeColor=none;fillColor=none;fontSize=10;" parent="1" vertex="1">
          <mxGeometry x="835" y="335" width="20" height="30" as="geometry" />
        </mxCell>
        <mxCell id="hTApx3QeaIhkRUZipJa1-39" value="&lt;div&gt;&lt;div&gt;&lt;br style=&quot;font-size: 10px; text-align: left;&quot;&gt;&lt;/div&gt;&lt;/div&gt;" style="text;html=1;align=center;verticalAlign=middle;resizable=0;points=[];autosize=1;strokeColor=none;fillColor=none;" parent="1" vertex="1">
          <mxGeometry x="925" y="490" width="20" height="30" as="geometry" />
        </mxCell>
        <mxCell id="w6JTWk-8RyiKcr2LF3_k-1" value="비회원은 회원가입 가능(Create)" style="text;html=1;align=center;verticalAlign=middle;resizable=0;points=[];autosize=1;strokeColor=none;fillColor=none;" parent="1" vertex="1">
          <mxGeometry x="110" y="320" width="180" height="30" as="geometry" />
        </mxCell>
        <mxCell id="w6JTWk-8RyiKcr2LF3_k-2" value="회원은 회원정보 조회 가능 (Read)&lt;div&gt;회원은 회원정보 수정 가능(Update)&lt;/div&gt;&lt;div&gt;회원은 회원정보 삭제가능(Delete)&lt;/div&gt;&lt;div&gt;&lt;br&gt;&lt;/div&gt;&lt;div&gt;회원은 로그인 가능(Process)&lt;/div&gt;&lt;div&gt;회원은 로그아웃 가능(Process)&lt;/div&gt;" style="text;html=1;align=center;verticalAlign=middle;resizable=0;points=[];autosize=1;strokeColor=none;fillColor=none;" parent="1" vertex="1">
          <mxGeometry x="350" y="295" width="200" height="100" as="geometry" />
        </mxCell>
        <mxCell id="w6JTWk-8RyiKcr2LF3_k-3" value="직원은 회원의 정보 조회 가능(Read)&lt;div&gt;직원은 회원의 정보 수정 가능(Update)&lt;/div&gt;&lt;div&gt;직원은 회원의 탈퇴 가능(Delete)&lt;/div&gt;&lt;div&gt;&lt;br&gt;&lt;/div&gt;&lt;div&gt;직원은 로그인 가능(Process)&lt;/div&gt;&lt;div&gt;직원은 로그아웃 가능(Process)&lt;/div&gt;" style="text;html=1;align=center;verticalAlign=middle;resizable=0;points=[];autosize=1;strokeColor=none;fillColor=none;" parent="1" vertex="1">
          <mxGeometry x="585" y="290" width="220" height="100" as="geometry" />
        </mxCell>
        <mxCell id="w6JTWk-8RyiKcr2LF3_k-4" value="관리자는 회원의 정보 조회 가능(Read)&lt;div&gt;관리자는 회원의 정보 수정 가능(Update)&lt;/div&gt;&lt;div&gt;관리자는 회원의 탈퇴 가능(Delete)&lt;/div&gt;&lt;div&gt;&lt;br&gt;&lt;/div&gt;&lt;div&gt;관리자는 로그인 가능(Process)&lt;/div&gt;&lt;div&gt;관리자는 로그아웃 가능(Process)&lt;/div&gt;" style="text;html=1;align=center;verticalAlign=middle;resizable=0;points=[];autosize=1;strokeColor=none;fillColor=none;" parent="1" vertex="1">
          <mxGeometry x="820" y="290" width="230" height="100" as="geometry" />
        </mxCell>
        <mxCell id="w6JTWk-8RyiKcr2LF3_k-5" value="&lt;div&gt;관리자는 항공편 등록 가능(Create)&lt;/div&gt;&lt;div&gt;관리자는 항공편 일정/가격 조회가능(Read)&lt;/div&gt;&lt;div&gt;관리자는 항공편 지연/결항시 공지 가능(Update)&lt;/div&gt;&lt;div&gt;관리자는 항공편 수정 가능(Update)&lt;/div&gt;&lt;div&gt;관리자는 항공편 삭제 가능(Delete)&lt;/div&gt;" style="text;html=1;align=center;verticalAlign=middle;resizable=0;points=[];autosize=1;strokeColor=none;fillColor=none;" parent="1" vertex="1">
          <mxGeometry x="810" y="470" width="260" height="90" as="geometry" />
        </mxCell>
        <mxCell id="w6JTWk-8RyiKcr2LF3_k-6" value="&lt;div&gt;&lt;span style=&quot;background-color: transparent; color: light-dark(rgb(0, 0, 0), rgb(255, 255, 255));&quot;&gt;관리자는 고객 / 전체 예매 내역 조회 가능(Read)&lt;/span&gt;&lt;/div&gt;&lt;div&gt;관리자는 고객의 항공편 수정 가능(Update)&lt;/div&gt;&lt;div&gt;관리자는 고객의 예매 취소 가능(Delete)&lt;/div&gt;" style="text;html=1;align=center;verticalAlign=middle;resizable=0;points=[];autosize=1;strokeColor=none;fillColor=none;" parent="1" vertex="1">
          <mxGeometry x="810" y="655" width="260" height="60" as="geometry" />
        </mxCell>
        <mxCell id="w6JTWk-8RyiKcr2LF3_k-7" value="&lt;div&gt;직원은 고객 / 전체 예매 내역 조회 가능(Read)&lt;/div&gt;&lt;div&gt;직원은 고객의 항공편 수정 가능(Update)&lt;/div&gt;&lt;div&gt;직원은 고객의 예매 취소 가능(Delete)&lt;/div&gt;" style="text;html=1;align=center;verticalAlign=middle;resizable=0;points=[];autosize=1;strokeColor=none;fillColor=none;" parent="1" vertex="1">
          <mxGeometry x="565" y="655" width="250" height="60" as="geometry" />
        </mxCell>
        <mxCell id="w6JTWk-8RyiKcr2LF3_k-8" value="&lt;div&gt;&lt;span style=&quot;background-color: transparent; color: light-dark(rgb(0, 0, 0), rgb(255, 255, 255));&quot;&gt;직원은 항공편 일정/가격 조회가능(Read)&lt;/span&gt;&lt;/div&gt;&lt;div&gt;직원은 항공편 지연/결항시 공지 가능(Update)&lt;/div&gt;" style="text;html=1;align=center;verticalAlign=middle;resizable=0;points=[];autosize=1;" parent="1" vertex="1">
          <mxGeometry x="570" y="495" width="250" height="40" as="geometry" />
        </mxCell>
        <mxCell id="w6JTWk-8RyiKcr2LF3_k-9" value="회원은 항공편 일정/가격 조회 가능(Read)" style="text;html=1;align=center;verticalAlign=middle;resizable=0;points=[];autosize=1;strokeColor=none;fillColor=none;" parent="1" vertex="1">
          <mxGeometry x="330" y="500" width="230" height="30" as="geometry" />
        </mxCell>
        <mxCell id="w6JTWk-8RyiKcr2LF3_k-10" value="회원은 항공편 예매 가능(Create)&lt;div&gt;회원은 예매 내역 조회 가능(Read)&lt;/div&gt;&lt;div&gt;회원은 예매 항공편 수정 가능(Update)&lt;/div&gt;&lt;div&gt;회원은 예매 취소 가능(Delete)&lt;/div&gt;" style="text;html=1;align=center;verticalAlign=middle;resizable=0;points=[];autosize=1;strokeColor=none;fillColor=none;" parent="1" vertex="1">
          <mxGeometry x="335" y="650" width="220" height="70" as="geometry" />
        </mxCell>
        <mxCell id="w6JTWk-8RyiKcr2LF3_k-11" value="비회원은 항공편 예매 가능(Create)&lt;div&gt;비회원은 예매 내역 조회 가능(Read)&lt;/div&gt;&lt;div&gt;비회원은 예매 항공편 수정 가능(Update)&lt;/div&gt;&lt;div&gt;비회원은 예매 취소 가능(Delete)&lt;/div&gt;" style="text;html=1;align=center;verticalAlign=middle;resizable=0;points=[];autosize=1;strokeColor=none;fillColor=none;" parent="1" vertex="1">
          <mxGeometry x="95" y="650" width="230" height="70" as="geometry" />
        </mxCell>
        <mxCell id="w6JTWk-8RyiKcr2LF3_k-12" value="비회원은 항공편 일정/가격 조회 가능(Read)" style="text;html=1;align=center;verticalAlign=middle;resizable=0;points=[];autosize=1;strokeColor=none;fillColor=none;" parent="1" vertex="1">
          <mxGeometry x="80" y="500" width="240" height="30" as="geometry" />
        </mxCell>
      </root>
    </mxGraphModel>
  </diagram>
  <diagram name="요구사항명세서" id="YKYi9-N37eoPCUhxExld">
    <mxGraphModel dx="1208" dy="836" grid="1" gridSize="10" guides="1" tooltips="1" connect="1" arrows="1" fold="1" page="1" pageScale="1" pageWidth="827" pageHeight="1169" math="0" shadow="0">
      <root>
        <mxCell id="0" />
        <mxCell id="1" parent="0" />
        <mxCell id="IjuKtVvtsaJKCJxj3eiM-1" value="&lt;div&gt;&amp;lt;&amp;lt;유스케이스 명세서&amp;gt;&amp;gt;&lt;/div&gt;유스케이스명 : 회원가입" style="shape=table;startSize=40;container=1;collapsible=1;childLayout=tableLayout;fixedRows=1;rowLines=0;fontStyle=1;align=center;resizeLast=1;html=1;" parent="1" vertex="1">
          <mxGeometry x="50" y="50" width="510" height="690" as="geometry" />
        </mxCell>
        <mxCell id="IjuKtVvtsaJKCJxj3eiM-2" value="" style="shape=tableRow;horizontal=0;startSize=0;swimlaneHead=0;swimlaneBody=0;fillColor=none;collapsible=0;dropTarget=0;points=[[0,0.5],[1,0.5]];portConstraint=eastwest;top=0;left=0;right=0;bottom=1;strokeColor=default;verticalAlign=middle;fontStyle=0" parent="IjuKtVvtsaJKCJxj3eiM-1" vertex="1">
          <mxGeometry y="40" width="510" height="30" as="geometry" />
        </mxCell>
        <mxCell id="IjuKtVvtsaJKCJxj3eiM-3" value="목표" style="shape=partialRectangle;connectable=0;fillColor=none;top=0;left=0;bottom=0;right=0;fontStyle=1;overflow=hidden;whiteSpace=wrap;html=1;" parent="IjuKtVvtsaJKCJxj3eiM-2" vertex="1">
          <mxGeometry width="60" height="30" as="geometry">
            <mxRectangle width="60" height="30" as="alternateBounds" />
          </mxGeometry>
        </mxCell>
        <mxCell id="IjuKtVvtsaJKCJxj3eiM-4" value="&lt;span style=&quot;font-weight: 400; text-wrap: nowrap;&quot;&gt;비회원이 회원가입을 할 수 있도록 시스템을 통해 회원가입 절차를 완료한다&lt;/span&gt;" style="shape=partialRectangle;connectable=0;fillColor=none;top=0;left=0;bottom=0;right=0;align=left;spacingLeft=6;fontStyle=1;overflow=hidden;whiteSpace=wrap;html=1;" parent="IjuKtVvtsaJKCJxj3eiM-2" vertex="1">
          <mxGeometry x="60" width="450" height="30" as="geometry">
            <mxRectangle width="450" height="30" as="alternateBounds" />
          </mxGeometry>
        </mxCell>
        <mxCell id="IjuKtVvtsaJKCJxj3eiM-5" value="" style="shape=tableRow;horizontal=0;startSize=0;swimlaneHead=0;swimlaneBody=0;fillColor=none;collapsible=0;dropTarget=0;points=[[0,0.5],[1,0.5]];portConstraint=eastwest;top=0;left=0;right=0;bottom=1;" parent="IjuKtVvtsaJKCJxj3eiM-1" vertex="1">
          <mxGeometry y="70" width="510" height="30" as="geometry" />
        </mxCell>
        <mxCell id="IjuKtVvtsaJKCJxj3eiM-6" value="엑터" style="shape=partialRectangle;connectable=0;fillColor=none;top=0;left=0;bottom=0;right=0;fontStyle=1;overflow=hidden;whiteSpace=wrap;html=1;" parent="IjuKtVvtsaJKCJxj3eiM-5" vertex="1">
          <mxGeometry width="60" height="30" as="geometry">
            <mxRectangle width="60" height="30" as="alternateBounds" />
          </mxGeometry>
        </mxCell>
        <mxCell id="IjuKtVvtsaJKCJxj3eiM-7" value="비회원" style="shape=partialRectangle;connectable=0;fillColor=none;top=0;left=0;bottom=0;right=0;align=left;spacingLeft=6;fontStyle=0;overflow=hidden;whiteSpace=wrap;html=1;" parent="IjuKtVvtsaJKCJxj3eiM-5" vertex="1">
          <mxGeometry x="60" width="450" height="30" as="geometry">
            <mxRectangle width="450" height="30" as="alternateBounds" />
          </mxGeometry>
        </mxCell>
        <mxCell id="IjuKtVvtsaJKCJxj3eiM-8" value="" style="shape=tableRow;horizontal=0;startSize=0;swimlaneHead=0;swimlaneBody=0;fillColor=none;collapsible=0;dropTarget=0;points=[[0,0.5],[1,0.5]];portConstraint=eastwest;top=0;left=0;right=0;bottom=1;" parent="IjuKtVvtsaJKCJxj3eiM-1" vertex="1">
          <mxGeometry y="100" width="510" height="30" as="geometry" />
        </mxCell>
        <mxCell id="IjuKtVvtsaJKCJxj3eiM-9" value="사전 조건" style="shape=partialRectangle;connectable=0;fillColor=none;top=0;left=0;bottom=0;right=0;fontStyle=1;overflow=hidden;whiteSpace=wrap;html=1;" parent="IjuKtVvtsaJKCJxj3eiM-8" vertex="1">
          <mxGeometry width="60" height="30" as="geometry">
            <mxRectangle width="60" height="30" as="alternateBounds" />
          </mxGeometry>
        </mxCell>
        <mxCell id="IjuKtVvtsaJKCJxj3eiM-10" value="메인페이지에서 회원가입 버튼을 클릭하여 회원가입 페이지로 이동한다" style="shape=partialRectangle;connectable=0;fillColor=none;top=0;left=0;bottom=0;right=0;align=left;spacingLeft=6;fontStyle=0;overflow=hidden;whiteSpace=wrap;html=1;" parent="IjuKtVvtsaJKCJxj3eiM-8" vertex="1">
          <mxGeometry x="60" width="450" height="30" as="geometry">
            <mxRectangle width="450" height="30" as="alternateBounds" />
          </mxGeometry>
        </mxCell>
        <mxCell id="IjuKtVvtsaJKCJxj3eiM-11" value="" style="shape=tableRow;horizontal=0;startSize=0;swimlaneHead=0;swimlaneBody=0;fillColor=none;collapsible=0;dropTarget=0;points=[[0,0.5],[1,0.5]];portConstraint=eastwest;top=0;left=0;right=0;bottom=1;" parent="IjuKtVvtsaJKCJxj3eiM-1" vertex="1">
          <mxGeometry y="130" width="510" height="30" as="geometry" />
        </mxCell>
        <mxCell id="IjuKtVvtsaJKCJxj3eiM-12" value="사후 처리" style="shape=partialRectangle;connectable=0;fillColor=none;top=0;left=0;bottom=0;right=0;fontStyle=1;overflow=hidden;whiteSpace=wrap;html=1;" parent="IjuKtVvtsaJKCJxj3eiM-11" vertex="1">
          <mxGeometry width="60" height="30" as="geometry">
            <mxRectangle width="60" height="30" as="alternateBounds" />
          </mxGeometry>
        </mxCell>
        <mxCell id="IjuKtVvtsaJKCJxj3eiM-13" value="회원 정상 가입 이후 로그인 페이지로 이동" style="shape=partialRectangle;connectable=0;fillColor=none;top=0;left=0;bottom=0;right=0;align=left;spacingLeft=6;fontStyle=0;overflow=hidden;whiteSpace=wrap;html=1;" parent="IjuKtVvtsaJKCJxj3eiM-11" vertex="1">
          <mxGeometry x="60" width="450" height="30" as="geometry">
            <mxRectangle width="450" height="30" as="alternateBounds" />
          </mxGeometry>
        </mxCell>
        <mxCell id="IjuKtVvtsaJKCJxj3eiM-14" value="" style="shape=tableRow;horizontal=0;startSize=0;swimlaneHead=0;swimlaneBody=0;fillColor=none;collapsible=0;dropTarget=0;points=[[0,0.5],[1,0.5]];portConstraint=eastwest;top=0;left=0;right=0;bottom=1;" parent="IjuKtVvtsaJKCJxj3eiM-1" vertex="1">
          <mxGeometry y="160" width="510" height="170" as="geometry" />
        </mxCell>
        <mxCell id="IjuKtVvtsaJKCJxj3eiM-15" value="기본흐름" style="shape=partialRectangle;connectable=0;fillColor=none;top=0;left=0;bottom=0;right=0;fontStyle=1;overflow=hidden;whiteSpace=wrap;html=1;" parent="IjuKtVvtsaJKCJxj3eiM-14" vertex="1">
          <mxGeometry width="60" height="170" as="geometry">
            <mxRectangle width="60" height="170" as="alternateBounds" />
          </mxGeometry>
        </mxCell>
        <mxCell id="IjuKtVvtsaJKCJxj3eiM-16" value="&lt;div style=&quot;text-wrap: nowrap;&quot;&gt;&lt;div&gt;1 비회원이 계정 입력란에 email 계정을 입력하고 인증 버튼을 클릭한다&lt;/div&gt;&lt;div&gt;2 시스템은 해당 계정으로 인증코드를 전송한다&lt;/div&gt;&lt;div&gt;3 시스템은 비회원이 보는 페이지에 인증코드 확인폼을 활성화 한다&lt;/div&gt;&lt;div&gt;4 비회원은 이메일 인증코드를 인증코드 확인폼에 입력한 뒤 인증확인 버튼을 클릭한다&lt;/div&gt;&lt;div&gt;5 시스템은 인증확인 처리를 한뒤 인증확인 메시지를 전달한다&lt;/div&gt;&lt;div&gt;6 비회원은&amp;nbsp; 이름/연락처/주소/를 입력하고 회원가입 버튼을 클릭한다&lt;/div&gt;&lt;div&gt;7 시스템은 회원가입 처리 이후 메시지를 전달한다&lt;/div&gt;&lt;div&gt;8 비회원이 메시지 확인 버튼을 클릭한다&lt;/div&gt;&lt;/div&gt;" style="shape=partialRectangle;connectable=0;fillColor=none;top=0;left=0;bottom=0;right=0;align=left;spacingLeft=6;fontStyle=0;overflow=hidden;whiteSpace=wrap;html=1;" parent="IjuKtVvtsaJKCJxj3eiM-14" vertex="1">
          <mxGeometry x="60" width="450" height="170" as="geometry">
            <mxRectangle width="450" height="170" as="alternateBounds" />
          </mxGeometry>
        </mxCell>
        <mxCell id="IjuKtVvtsaJKCJxj3eiM-17" value="" style="shape=tableRow;horizontal=0;startSize=0;swimlaneHead=0;swimlaneBody=0;fillColor=none;collapsible=0;dropTarget=0;points=[[0,0.5],[1,0.5]];portConstraint=eastwest;top=0;left=0;right=0;bottom=1;" parent="IjuKtVvtsaJKCJxj3eiM-1" vertex="1">
          <mxGeometry y="330" width="510" height="130" as="geometry" />
        </mxCell>
        <mxCell id="IjuKtVvtsaJKCJxj3eiM-18" value="대안흐름" style="shape=partialRectangle;connectable=0;fillColor=none;top=0;left=0;bottom=0;right=0;fontStyle=1;overflow=hidden;whiteSpace=wrap;html=1;" parent="IjuKtVvtsaJKCJxj3eiM-17" vertex="1">
          <mxGeometry width="60" height="130" as="geometry">
            <mxRectangle width="60" height="130" as="alternateBounds" />
          </mxGeometry>
        </mxCell>
        <mxCell id="IjuKtVvtsaJKCJxj3eiM-19" value="&lt;div&gt;취소 버튼를 입력하면 메인 화면으로 이동&lt;/div&gt;" style="shape=partialRectangle;connectable=0;fillColor=none;top=0;left=0;bottom=0;right=0;align=left;spacingLeft=6;fontStyle=0;overflow=hidden;whiteSpace=wrap;html=1;" parent="IjuKtVvtsaJKCJxj3eiM-17" vertex="1">
          <mxGeometry x="60" width="450" height="130" as="geometry">
            <mxRectangle width="450" height="130" as="alternateBounds" />
          </mxGeometry>
        </mxCell>
        <mxCell id="IjuKtVvtsaJKCJxj3eiM-20" value="" style="shape=tableRow;horizontal=0;startSize=0;swimlaneHead=0;swimlaneBody=0;fillColor=none;collapsible=0;dropTarget=0;points=[[0,0.5],[1,0.5]];portConstraint=eastwest;top=0;left=0;right=0;bottom=1;" parent="IjuKtVvtsaJKCJxj3eiM-1" vertex="1">
          <mxGeometry y="460" width="510" height="230" as="geometry" />
        </mxCell>
        <mxCell id="IjuKtVvtsaJKCJxj3eiM-21" value="예외흐름" style="shape=partialRectangle;connectable=0;fillColor=none;top=0;left=0;bottom=0;right=0;fontStyle=1;overflow=hidden;whiteSpace=wrap;html=1;" parent="IjuKtVvtsaJKCJxj3eiM-20" vertex="1">
          <mxGeometry width="60" height="230" as="geometry">
            <mxRectangle width="60" height="230" as="alternateBounds" />
          </mxGeometry>
        </mxCell>
        <mxCell id="IjuKtVvtsaJKCJxj3eiM-22" value="&lt;div style=&quot;text-wrap: nowrap;&quot;&gt;1a 동일한 계정이 있는경우&lt;/div&gt;&lt;div style=&quot;text-wrap: nowrap;&quot;&gt;&lt;span style=&quot;white-space-collapse: preserve;&quot;&gt;&#x9;&lt;/span&gt;시스템은 &#39;동일한 계정이 있습니다&#39; 라는 메시지를 비회원에게 전달&lt;br&gt;&lt;/div&gt;&lt;div style=&quot;text-wrap: nowrap;&quot;&gt;&lt;br&gt;&lt;/div&gt;&lt;div style=&quot;text-wrap: nowrap;&quot;&gt;1b 인증을 하지않고 회원가입을 하려는 경우&lt;/div&gt;&lt;div style=&quot;text-wrap: nowrap;&quot;&gt;&lt;span style=&quot;white-space-collapse: preserve;&quot;&gt;&#x9;&lt;/span&gt;시스템은 &#39;인증이 되지 않았습니다&#39; 라는 메시지를 비회원에게 전달&lt;br&gt;&lt;/div&gt;&lt;div style=&quot;text-wrap: nowrap;&quot;&gt;&lt;br&gt;&lt;/div&gt;&lt;div style=&quot;text-wrap: nowrap;&quot;&gt;1c 인증코드 입력 누락시&lt;br&gt;&lt;/div&gt;&lt;div style=&quot;text-wrap: nowrap;&quot;&gt;&lt;span style=&quot;white-space-collapse: preserve;&quot;&gt;&#x9;&lt;/span&gt;&#39;인증처리를 위한 code를 입력하세요&#39; 메시지를 비회원에게 전달&lt;br&gt;&lt;/div&gt;&lt;div style=&quot;text-wrap: nowrap;&quot;&gt;&lt;br&gt;&lt;/div&gt;&lt;div style=&quot;text-wrap: nowrap;&quot;&gt;&lt;span style=&quot;background-color: initial;&quot;&gt;1d email형식에 맞지 않는 주소 입력&lt;/span&gt;&lt;br&gt;&lt;/div&gt;&lt;div style=&quot;text-wrap: nowrap;&quot;&gt;&lt;span style=&quot;white-space-collapse: preserve;&quot;&gt;&#x9;&lt;/span&gt;&#39;올바른 이메일 형식을 입력하세요&#39; 라는 메시지를 비회원에게 전달&lt;/div&gt;" style="shape=partialRectangle;connectable=0;fillColor=none;top=0;left=0;bottom=0;right=0;align=left;spacingLeft=6;fontStyle=0;overflow=hidden;whiteSpace=wrap;html=1;" parent="IjuKtVvtsaJKCJxj3eiM-20" vertex="1">
          <mxGeometry x="60" width="450" height="230" as="geometry">
            <mxRectangle width="450" height="230" as="alternateBounds" />
          </mxGeometry>
        </mxCell>
      </root>
    </mxGraphModel>
  </diagram>
</mxfile>
